Coordinates
version=1
nRows=12
nColumns=33
inDegrees=yes

Units are S.I. units (second, meters, Newtons, ...)
Angles are in degrees.

endheader
time	ground_thorax_rot_x	ground_thorax_rot_y	ground_thorax_rot_z	ground_thorax_tx	ground_thorax_ty	ground_thorax_tz	clav_prot_r	clav_elev_r	scapula_abduction_r	scapula_elevation_r	scapula_upward_rot_r	scapula_winging_r	shoulder_elv_r	plane_of_elev_r	axial_rot_r	elbow_flexion_r	pro_sup_r	wrist_flex_r	wrist_dev_r	clav_prot_l	clav_elev_l	scapula_abduction_l	scapula_elevation_l	scapula_upward_rot_l	scapula_winging_l	shoulder_elv_l	plane_of_elev_l	axial_rot_l	elbow_flexion_l	pro_sup_l	wrist_flex_l	wrist_dev_l
      5.67000000	     -0.94354698	      2.19956456	     12.80207460	     -0.11649861	      1.02695694	      0.01396809	      8.88109566	    -10.76549480	     17.12414853	     -4.85379827	      3.09429175	     -3.38183773	    -32.63047016	    -73.45941016	    104.57454924	    -81.44950462	   -155.55528350	     27.78166621	    -11.39133582	     11.11734335	     -3.43011350	    -14.35727547	    -17.85523361	    -33.94981196	     -0.07644354	     63.51652905	    -24.13817663	      4.57288006	     67.81081744	     14.16074541	     16.49942340	    -14.22152242
      5.68000000	     -0.99786822	      2.17650133	     13.09835540	     -0.11698022	      1.02703293	      0.01387289	      9.35159545	    -11.12055906	     17.70716686	     -4.99084227	      2.65289602	     -3.44652759	    -30.19719101	    -73.10958183	    106.08039764	    -81.80120905	   -156.52581149	     25.42926414	     -9.34760125	     11.42456568	     -4.00175705	    -14.92738946	    -17.27162239	    -33.90562943	      0.20354990	     63.79500685	    -23.40145744	      4.94020210	     66.87100104	     13.64399214	     18.47660574	    -12.62248690
      5.69000000	     -1.20244057	      2.33632424	     12.98440046	     -0.11684995	      1.02715439	      0.01382562	      9.45660003	    -11.42461842	     18.15970399	     -5.47517318	      3.18032614	     -3.49695631	    -29.53390729	    -72.64841215	    106.36204427	    -81.58497591	   -156.69313091	     24.97388559	     -9.03625399	     11.63242353	     -4.34180502	    -15.23454055	    -16.66532262	    -33.33840488	      0.43525806	     64.09686659	    -22.42875397	      4.86165589	     65.56796625	     13.70787088	     18.72563433	    -12.22802204
      5.70000000	     -1.40937568	      2.37439892	     12.93195377	     -0.11686563	      1.02644910	      0.01354334	      9.56024226	    -11.34229865	     18.69779456	     -5.67770385	      3.88645831	     -3.75862297	    -27.91190910	    -72.29709136	    108.08119562	    -81.56217262	   -157.46919641	     22.46445398	     -6.78585958	     11.98816274	     -4.34647011	    -15.81483730	    -16.44203120	    -32.91750962	      0.76540068	     64.01955405	    -21.08848350	      5.26816826	     64.34143193	     13.20398470	     20.40514492	    -11.01130669
      5.71000000	     -1.56318463	      2.39049873	     13.10198857	     -0.11730440	      1.02633571	      0.01334724	      9.99047124	    -11.68935772	     19.27654435	     -5.86807925	      3.59401398	     -3.83223838	    -25.39649657	    -71.74544870	    109.76401875	    -81.46061458	   -158.24330867	     20.41034694	     -4.93712632	     12.45625401	     -4.86398990	    -16.64158015	    -15.85923133	    -32.77043471	      1.16513932	     64.12659090	    -20.21323922	      5.79545150	     62.98985328	     12.81857197	     21.95062370	     -9.91363217
      5.72000000	     -1.81902448	      2.54615808	     13.05283894	     -0.11703856	      1.02608799	      0.01309001	      9.93006852	    -11.82402686	     19.43044413	     -6.18330770	      4.08307522	     -3.83112578	    -23.70614495	    -71.25053880	    111.34866482	    -80.93515306	   -158.75046005	     19.27186231	     -3.98170648	     12.76583952	     -5.00683594	    -17.14006547	    -15.48796499	    -32.30826760	      1.46314130	     64.15299342	    -18.87699767	      6.04376522	     61.29348648	     12.82189176	     22.68734910	     -9.26788981
      5.73000000	     -2.04741150	      2.66679480	     12.97893536	     -0.11693571	      1.02626557	      0.01292469	     10.19642876	    -12.28781641	     20.01706379	     -6.69825736	      4.34288583	     -3.84568530	    -22.90142186	    -70.64831665	    111.47785296	    -80.32504086	   -158.91257204	     18.80130389	     -3.68395839	     13.04362631	     -5.56538446	    -17.58643897	    -14.69788657	    -31.78253635	      1.73093952	     64.42110630	    -18.08220771	      6.00935330	     59.61780716	     12.96846918	     22.91975271	     -8.89432266
      5.74000000	     -2.22390074	      2.61652024	     13.04921469	     -0.11701381	      1.02576716	      0.01245370	     10.48381617	    -12.41007588	     20.69539185	     -6.94689922	      4.71727294	     -4.06403236	    -21.10737718	    -70.22640022	    113.05101659	    -79.77166464	   -159.78317621	     16.85323121	     -1.72931342	     13.55525453	     -5.72321971	    -18.45613119	    -14.36963825	    -31.45417055	      2.18293132	     63.99752317	    -16.78897662	      6.94699842	     57.80394089	     12.82208969	     24.34031688	     -8.18370789
      5.75000000	     -2.48951939	      2.76457624	     12.93405982	     -0.11682318	      1.02588787	      0.01226501	     10.74195668	    -12.84763347	     21.26739308	     -7.43979696	      4.98593315	     -4.07810867	    -20.27779441	    -69.52013579	    113.20607511	    -78.97235065	   -159.96327434	     16.38472685	     -1.44866148	     13.86030156	     -6.28248864	    -18.94840845	    -13.57839093	    -30.92105997	      2.46051191	     64.30643650	    -15.97471346	      6.84861820	     55.96248915	     13.07812623	     24.55841048	     -7.81494788
      5.76000000	     -2.70135578	      2.84269535	     13.12781753	     -0.11719989	      1.02496106	      0.01184718	     11.07809116	    -12.86093486	     21.77223972	     -7.40446326	      4.88297410	     -4.28701326	    -17.72915851	    -68.79387027	    115.36121502	    -78.33169998	   -161.15543333	     14.32966681	      0.63261603	     14.63366327	     -6.37821505	    -20.28801357	    -13.38816478	    -30.78162602	      3.12358564	     63.90662923	    -14.54392214	      7.73775876	     53.99958509	     13.43710149	     26.13738438	     -7.39756769
      5.77000000	     -2.93856482	      2.88712057	     12.95308362	     -0.11674974	      1.02536398	      0.01153888	     11.24511263	    -13.41209165	     22.27918585	     -8.06670164	      5.32573458	     -4.20571007	    -16.96015780	    -68.29760249	    115.55737552	    -77.34813374	   -161.23635173	     13.96828116	      0.77497280	     14.89939489	     -6.99227223	    -20.70798844	    -12.56436896	    -30.27039540	      3.34700067	     64.08318715	    -13.74603992	      8.01936757	     51.97610386	     13.75603962	     26.17968427	     -7.05838158
      5.78000000	     -3.19069966	      2.96876263	     13.02059995	     -0.11689161	      1.02474182	      0.01099856	     11.47299227	    -13.61326253	     22.69608158	     -8.27412063	      5.40669096	     -4.27519936	    -14.87072839	    -67.72008139	    117.31010834	    -76.48898472	   -161.90744173	     12.54405702	      2.04872364	     15.66559491	     -7.09204762	    -22.01900836	    -12.32565373	    -30.03112173	      4.01941130	     63.65031285	    -12.32985749	      8.91798637	     49.81655111	     14.45302792	     26.96686314	     -7.07783199
